<svg xmlns="http://www.w3.org/2000/svg" width="142" height="40" fill="none" viewBox="0 0 142 40"><path fill="#2C2347" d="M8.768 31H5.92V16.92C5.92 14.616 6.656 12.6534 8.128 11.032C9.62133 9.4107 11.5413 8.60003 13.888 8.60003H21.216V31H18.208V11.416H13.888C12.3307 11.416 11.0827 11.8747 10.144 12.792C9.22666 13.7094 8.768 15.1707 8.768 17.176V19.896C9.96267 18.6374 11.6693 18.008 13.888 18.008H16.8V20.824H13.888C12.6507 20.824 11.6373 20.9734 10.848 21.272C10.08 21.5707 9.38666 22.0827 8.768 22.808V31Z"/><path fill="#2C2347" d="M28.5247 31H25.5487V15.736C25.5487 13.5387 26.2527 11.7467 27.6607 10.36C29.0901 8.97336 30.8501 8.28003 32.9407 8.28003C35.2447 8.28003 36.9727 8.8667 38.1247 10.04C39.2981 11.192 39.8848 12.6107 39.8848 14.296C39.8848 16.4507 38.8821 17.9974 36.8767 18.936V19.064C39.6287 19.8534 41.0048 21.7627 41.0048 24.792C41.0048 28.9307 38.5621 31 33.6767 31H29.6767V28.184H33.6447C35.1167 28.184 36.1941 27.8854 36.8767 27.288C37.5594 26.6907 37.9007 25.7307 37.9007 24.408C37.9007 23.256 37.5274 22.3707 36.7807 21.752C36.0554 21.1334 35.0634 20.824 33.8047 20.824H30.6367V18.168H32.6847C33.8367 18.168 34.8181 17.8587 35.6287 17.24C36.4607 16.6 36.8767 15.7467 36.8767 14.68C36.8767 13.656 36.5567 12.8027 35.9167 12.12C35.2981 11.4374 34.2847 11.096 32.8767 11.096C31.5967 11.096 30.5514 11.5014 29.7407 12.312C28.9301 13.1014 28.5247 14.264 28.5247 15.8V31Z"/><path fill="#2C2347" d="M44.3575 19.8C44.3788 16.2374 45.3602 13.4854 47.3015 11.544C49.2642 9.58136 51.9628 8.60003 55.3975 8.60003H57.4775V11.416H55.0135C52.6455 11.416 50.8215 12.2054 49.5415 13.784C48.2828 15.3414 47.6322 17.3467 47.5895 19.8C47.6322 22.2534 48.2828 24.2694 49.5415 25.848C50.8215 27.4054 52.6455 28.184 55.0135 28.184H57.4775V31H55.3975C51.9628 31 49.2642 30.0294 47.3015 28.088C45.3602 26.1254 44.3788 23.3627 44.3575 19.8Z"/><path fill="#2C2347" d="M64.018 31H61.17V16.92C61.17 14.616 61.906 12.6534 63.378 11.032C64.8713 9.4107 66.7913 8.60003 69.138 8.60003H76.466V31H73.458V11.416H69.138C67.5807 11.416 66.3327 11.8747 65.394 12.792C64.4767 13.7094 64.018 15.1707 64.018 17.176V19.896C65.2127 18.6374 66.9193 18.008 69.138 18.008H72.05V20.824H69.138C67.9007 20.824 66.8873 20.9734 66.098 21.272C65.33 21.5707 64.6367 22.0827 64.018 22.808V31Z"/><path fill="#2C2347" d="M83.9668 31H80.9587V8.60003H88.8627C91.5081 8.60003 93.4814 9.19736 94.7828 10.392C96.0841 11.5654 96.7347 13.4214 96.7347 15.96V31H93.7268V15.544C93.7268 14.0934 93.2787 13.048 92.3828 12.408C91.5081 11.7467 90.3454 11.416 88.8948 11.416H83.9668V31Z"/><path fill="#2C2347" d="M116.445 19.8C116.423 23.3627 115.431 26.1254 113.468 28.088C111.527 30.0294 108.839 31 105.405 31H101.052V8.60003H105.405C108.839 8.60003 111.527 9.58136 113.468 11.544C115.431 13.4854 116.423 16.2374 116.445 19.8ZM105.788 28.184C108.157 28.184 109.97 27.4054 111.229 25.848C112.508 24.2694 113.17 22.2534 113.213 19.8C113.17 17.3467 112.508 15.3414 111.229 13.784C109.97 12.2054 108.157 11.416 105.788 11.416H104.061V28.184H105.788Z"/><path fill="#2C2347" d="M134.311 8.60003V10.2C134.311 12.8027 133.82 15.192 132.839 17.368C131.879 19.5227 130.471 21.1654 128.615 22.296V31H125.607V22.36C123.751 21.2507 122.322 19.64 121.319 17.528C120.316 15.3947 119.815 13.048 119.815 10.488V8.60003H122.887V10.2C122.887 12.3974 123.196 14.2854 123.815 15.864C124.455 17.4214 125.554 18.7014 127.111 19.704C129.906 17.848 131.303 14.68 131.303 10.2V8.60003H134.311Z"/></svg>